PathFileType	4	(X/Y/Z)	./resultDataOpenSim/trcMotMarkerGrf/sub10/qtm-12-02.trc
DataRate	CameraRate	NumFrames	NumMarkers	Units	OrigDataRate	OrigDataStartFrame	OrigNumFrames
250.000000	250.000000	14	24	m	250.000000	58	461
Frame#	Time	L.Toe.Tip			R.Toe.Tip			L.Ankle.Lat			R.Ankle.Lat			L.Ankle.Med			R.Ankle.Med			L.Heel			R.Heel			L.Knee.Lat			R.Knee.Lat			L.Knee.Med			R.Knee.Med			L.Thigh.Upper			R.Thigh.Upper			L.ASIS			R.ASIS			V.Sacral			L.Acromium			R.Acromium			C7			L.Elbow			R.Elbow			L.Wrist.Lat			R.Wrist.Lat
		X1	Y1	Z1	X2	Y2	Z2	X3	Y3	Z3	X4	Y4	Z4	X5	Y5	Z5	X6	Y6	Z6	X7	Y7	Z7	X8	Y8	Z8	X9	Y9	Z9	X10	Y10	Z10	X11	Y11	Z11	X12	Y12	Z12	X13	Y13	Z13	X14	Y14	Z14	X15	Y15	Z15	X16	Y16	Z16	X17	Y17	Z17	X18	Y18	Z18	X19	Y19	Z19	X20	Y20	Z20	X21	Y21	Z21	X22	Y22	Z22	X23	Y23	Z23	X24	Y24	Z24

58	0.228	-1.4364838	0.065069733	-0.17659847	-0.82146551	0.039182196	0.019489328	-1.4237412	0.19795124	-0.2286191	-0.96296506	0.051950935	0.057869239	-1.4013328	0.19991481	-0.14763647	-0.94646905	0.080595893	-0.025132304	-1.4669475	0.25019199	-0.18843438	-1.0138606	0.028941816	0.0081710517	-1.1176009	0.42075776	-0.22515325	-0.96180078	0.45320153	0.090007367	-1.1091031	0.3855697	-0.10806173	-0.95632527	0.46000096	-0.036394054	-1.0650725	0.80221752	-0.24469573	-1.0561292	0.8630316	0.13672857	-1.0032211	0.91275683	-0.18035557	-0.99281976	0.94729468	0.055123876	-1.1969625	0.9509091	-0.057996268	-1.0421375	1.4086232	-0.20720537	-1.0727774	1.3959716	0.11217268	-1.1387716	1.4332337	-0.054712404	-1.0881294	1.0645998	-0.25516436	-1.221324	1.0928766	0.12339687	-0.87976824	0.9246508	-0.25161484	-1.2287275	0.86770499	0.21391091
59	0.232	-1.4203973	0.065670945	-0.17675935	-0.8213442	0.039124955	0.019343769	-1.4108012	0.19885016	-0.22804439	-0.9628806	0.051949014	0.057877493	-1.3884497	0.20112482	-0.14711027	-0.9461505	0.080567024	-0.025275882	-1.4554748	0.25023195	-0.18772663	-1.0139034	0.028943018	0.0081513994	-1.1042337	0.42127152	-0.22446412	-0.95947216	0.45319367	0.090168	-1.0967773	0.38675893	-0.10696032	-0.95400626	0.46023967	-0.036176678	-1.0576595	0.8030957	-0.24420081	-1.0507152	0.8636685	0.13709561	-0.99737714	0.91421757	-0.18007204	-0.98673648	0.94826683	0.05585919	-1.1910649	0.95180266	-0.057720461	-1.0365561	1.4095888	-0.20677607	-1.0658742	1.3969771	0.11270713	-1.1327896	1.4344872	-0.053720975	-1.0836488	1.0658965	-0.2549933	-1.2136995	1.0931062	0.12511314	-0.87635373	0.92430991	-0.25250179	-1.2183591	0.86762254	0.21504703
60	0.236	-1.4036338	0.066061979	-0.17705866	-0.82124736	0.039073857	0.019203839	-1.3975924	0.19949842	-0.22740638	-0.96293021	0.051962613	0.057869941	-1.3753788	0.20203721	-0.14650786	-0.94587779	0.080543512	-0.025405354	-1.4438993	0.24982032	-0.18717126	-1.0139604	0.028941711	0.0081296899	-1.0909028	0.42199055	-0.22373633	-0.95723859	0.4531476	0.090347553	-1.0844959	0.38802794	-0.10587277	-0.95159866	0.46046949	-0.035982551	-1.0503436	0.80407444	-0.24373997	-1.0454209	0.86425941	0.13741258	-0.99154036	0.91576587	-0.17984109	-0.98077743	0.94920539	0.056600055	-1.1851541	0.95271754	-0.057445864	-1.0309499	1.4105666	-0.20635267	-1.0590029	1.3979989	0.11320585	-1.1268381	1.4357214	-0.052772276	-1.0791785	1.0671879	-0.25476836	-1.2060731	1.0933706	0.12686866	-0.87299297	0.92397718	-0.25338826	-1.2077793	0.86757899	0.21624988
61	0.24	-1.3865311	0.066218279	-0.17729384	-0.8211822	0.039029748	0.019083748	-1.3841472	0.19989123	-0.22670854	-0.96302064	0.051978188	0.057862302	-1.3620017	0.20269983	-0.14587955	-0.94566148	0.080524564	-0.025506407	-1.4321255	0.24897217	-0.18674195	-1.0140266	0.028938051	0.0081132919	-1.0776141	0.42289391	-0.22296388	-0.9551436	0.4530688	0.090542184	-1.0721128	0.38934954	-0.10480846	-0.94917946	0.46068389	-0.035801648	-1.0431264	0.80517528	-0.24326936	-1.04019	0.86481249	0.13769436	-0.98564135	0.91739903	-0.17964357	-0.97496586	0.9500994	0.057349182	-1.1791769	0.95363964	-0.057131664	-1.0252836	1.411571	-0.20591363	-1.0522078	1.3990342	0.11368549	-1.1209307	1.4369255	-0.051858554	-1.0746984	1.0684746	-0.25443037	-1.1984732	1.0936588	0.12866369	-0.86966534	0.92365031	-0.25425856	-1.1970116	0.86758387	0.21754118
62	0.244	-1.3692216	0.066148638	-0.17741952	-0.82115252	0.038994567	0.018996224	-1.3705064	0.2000515	-0.22595785	-0.96311605	0.051993062	0.057862324	-1.3479745	0.20322784	-0.14533222	-0.94550115	0.080513166	-0.025574935	-1.4201347	0.24768346	-0.18632259	-1.0140961	0.028934105	0.0081053292	-1.0643904	0.4239545	-0.22213156	-0.95312738	0.45299219	0.090749823	-1.0595858	0.39071262	-0.10376227	-0.94673926	0.46087492	-0.035658577	-1.0360267	0.80641338	-0.24274315	-1.0349974	0.86534263	0.13796429	-0.97966672	0.91909929	-0.17948144	-0.96931519	0.95095013	0.058107181	-1.1731025	0.95453789	-0.056739017	-1.0195594	1.4126002	-0.20545549	-1.0455616	1.4000961	0.11417041	-1.1150687	1.4380905	-0.050988953	-1.0702183	1.0697635	-0.25398779	-1.1909348	1.0939574	0.13049712	-0.86637727	0.92332935	-0.25510336	-1.1861233	0.86762729	0.21891083
63	0.248	-1.3516323	0.065906648	-0.17754828	-0.82115825	0.038969869	0.018946984	-1.3567389	0.20002592	-0.22516228	-0.96319489	0.052010421	0.057869418	-1.3330658	0.20371166	-0.14494575	-0.94539148	0.080512046	-0.025612839	-1.4078615	0.24595648	-0.18589851	-1.0141625	0.028931327	0.0081001925	-1.0512903	0.42514353	-0.22122687	-0.9510461	0.452967	0.090979001	-1.0469682	0.39212463	-0.10272703	-0.94426995	0.4610264	-0.035560967	-1.0291005	0.80776846	-0.24217502	-1.0298391	0.86586214	0.13824489	-0.97369186	0.92082026	-0.17937373	-0.96378208	0.95177078	0.058885747	-1.1669754	0.95539779	-0.056293724	-1.0138414	1.4136427	-0.20499859	-1.0390639	1.4011889	0.11466215	-1.1092406	1.4392197	-0.050175357	-1.0657788	1.0710604	-0.2535445	-1.1834861	1.0942459	0.13236575	-0.86316954	0.92302045	-0.25592859	-1.1751509	0.8676844	0.22033964
64	0.252	-1.3336904	0.065550079	-0.17775763	-0.82119748	0.038956389	0.018937114	-1.342904	0.199838	-0.22432353	-0.96320703	0.052031026	0.057876309	-1.3176741	0.20410291	-0.14463068	-0.94532419	0.080521421	-0.025622561	-1.3952367	0.24385934	-0.18550137	-1.014217	0.028926847	0.0080831669	-1.0383839	0.42643653	-0.22025346	-0.94880839	0.45302217	0.091245787	-1.0343091	0.39360145	-0.10169524	-0.94190083	0.46111994	-0.035457499	-1.0224314	0.8091831	-0.24165498	-1.024728	0.86638055	0.13853756	-0.96780441	0.92251061	-0.17933162	-0.95827184	0.95257205	0.059701495	-1.1609085	0.95625154	-0.055889314	-1.008201	1.4146953	-0.20456927	-1.0326548	1.4023051	0.11514368	-1.1034315	1.4403242	-0.049427714	-1.0614156	1.072365	-0.25320996	-1.1761395	1.0944951	0.13426046	-0.86008527	0.92272742	-0.25675361	-1.1640953	0.86776423	0.22181511
65	0.256	-1.315405	0.065114368	-0.17802368	-0.82126685	0.038955684	0.018969604	-1.3289671	0.19945026	-0.22345147	-0.96307997	0.052046157	0.057870867	-1.3027224	0.20420917	-0.14413311	-0.9452839	0.080543011	-0.025606838	-1.3823523	0.24153865	-0.18502083	-1.0142496	0.028915977	0.0080360671	-1.0257089	0.42781568	-0.21923698	-0.94654768	0.45313062	0.091564419	-1.0216513	0.39515036	-0.10065768	-0.93979739	0.46114964	-0.035288743	-1.0160674	0.81060571	-0.24126828	-1.0196841	0.86690266	0.13883147	-0.96202136	0.9241408	-0.17934187	-0.95267866	0.9533605	0.060569172	-1.1549839	0.95714427	-0.055594702	-1.002654	1.4157625	-0.20417111	-1.0263164	1.4034414	0.11561063	-1.0976279	1.4414124	-0.048751825	-1.0571316	1.0736764	-0.25301264	-1.1688825	1.0946772	0.13615633	-0.85714038	0.92244857	-0.25758934	-1.1529505	0.86792399	0.22332774
66	0.26	-1.2968185	0.064618959	-0.17830071	-0.82136033	0.038970994	0.019049801	-1.3147872	0.19878623	-0.22257772	-0.96281122	0.052035877	0.057843681	-1.2887409	0.20384582	-0.14327909	-0.94524792	0.080583446	-0.02556894	-1.369369	0.23912091	-0.18428597	-1.0142571	0.028900583	0.0079523802	-1.0132353	0.42926807	-0.21821122	-0.94459115	0.45321798	0.091937886	-1.0090746	0.39675989	-0.099615373	-0.93800176	0.4611231	-0.035040791	-1.0099563	0.81202089	-0.24100159	-1.0147212	0.86742593	0.13912532	-0.95630178	0.92570729	-0.1793807	-0.94693414	0.95414736	0.061498486	-1.1491859	0.95808551	-0.055392478	-0.99716751	1.4168438	-0.20378495	-1.0200902	1.4046047	0.11607716	-1.0918168	1.442488	-0.048141181	-1.0529107	1.0749965	-0.25292026	-1.1616695	1.0947774	0.13799736	-0.85432876	0.92218412	-0.25842851	-1.1417169	0.86821051	0.22486712
67	0.264	-1.2779711	0.064078495	-0.17858888	-0.82147181	0.039003866	0.019175933	-1.3002635	0.1977842	-0.22172859	-0.96256669	0.051980623	0.057801751	-1.2753763	0.20297961	-0.14214302	-0.94520741	0.080648257	-0.025509409	-1.3563207	0.23660699	-0.18325857	-1.014251	0.028890098	0.0078486426	-1.0008817	0.43078317	-0.21718903	-0.94312418	0.45324211	0.092352547	-0.99666155	0.3984098	-0.098579771	-0.9364327	0.46104802	-0.034728517	-1.0039715	0.81343045	-0.24075636	-1.0098246	0.86795276	0.13943334	-0.95059958	0.92722577	-0.17942961	-0.94110286	0.95493812	0.062471598	-1.1434534	0.95906128	-0.055220034	-0.99170482	1.4179343	-0.20339236	-1.0140064	1.4058017	0.11655558	-1.0859872	1.4435527	-0.047581	-1.0487397	1.0763242	-0.25289436	-1.1544158	1.0947995	0.13968944	-0.85163625	0.9219346	-0.25926028	-1.1303944	0.86861784	0.22642838
68	0.268	-1.2589004	0.063503336	-0.17892685	-0.82159929	0.039050361	0.019333324	-1.2854708	0.1964326	-0.22089226	-0.96257138	0.051885315	0.057769975	-1.2619624	0.20170131	-0.14091769	-0.94520625	0.080730063	-0.025424476	-1.343127	0.23389079	-0.18201978	-1.0142502	0.028890635	0.0077556115	-0.9885939	0.43234888	-0.21614662	-0.94198065	0.45324183	0.092785277	-0.98442982	0.40008556	-0.097551644	-0.93495962	0.46092896	-0.034374145	-0.99801581	0.8148286	-0.24045309	-1.0049301	0.86848786	0.13978181	-0.94489366	0.92871518	-0.17947643	-0.93546434	0.95570988	0.063415506	-1.1377491	0.96006236	-0.055031271	-0.98624475	1.4190308	-0.20298543	-1.0080556	1.4070233	0.11704654	-1.0801364	1.4446065	-0.047060978	-1.0446115	1.0776522	-0.25290801	-1.14701	1.0947623	0.14114278	-0.84905331	0.92169129	-0.26008487	-1.1189731	0.86910935	0.22800883
69	0.272	-1.2396353	0.062898407	-0.17934434	-0.82174433	0.039102504	0.019505252	-1.2705696	0.19477768	-0.22003543	-0.96286706	0.051785255	0.05777069	-1.2481509	0.20011207	-0.13972179	-0.94532176	0.080810635	-0.025311559	-1.3297215	0.23085823	-0.18064672	-1.0142723	0.02889822	0.0077093926	-0.97638558	0.43395226	-0.21504703	-0.94088038	0.45327439	0.093219601	-0.97233614	0.40178397	-0.096507498	-0.93348705	0.46077319	-0.03400803	-0.99207751	0.81621277	-0.24009217	-0.99995032	0.86902026	0.14020102	-0.93919766	0.93017994	-0.17951624	-0.93036861	0.95642097	0.064233315	-1.1320619	0.96107693	-0.054810664	-0.98077457	1.4201282	-0.20256108	-1.0022222	1.4082461	0.11754367	-1.0742679	1.4456472	-0.046577677	-1.0405211	1.0789722	-0.25294352	-1.1393997	1.0946933	0.14238881	-0.8465878	0.92143766	-0.26091113	-1.1074464	0.86965207	0.22959457
70	0.276	-1.2202016	0.062258129	-0.17983163	-0.82190874	0.039153634	0.019685805	-1.2556226	0.19289865	-0.21913267	-0.96334462	0.051716519	0.057808415	-1.2339378	0.19827492	-0.13856673	-0.94556244	0.080882897	-0.025178507	-1.3160995	0.22745405	-0.17917093	-1.0143358	0.028903073	0.0077593427	-0.96429385	0.43558936	-0.21388051	-0.93971392	0.45334246	0.093650668	-0.96032624	0.4035114	-0.095417718	-0.9320313	0.46058415	-0.033651492	-0.98617763	0.8176037	-0.23970244	-0.99488244	0.86952999	0.1406911	-0.93353516	0.93161364	-0.1795471	-0.92584327	0.95705667	0.064903347	-1.1263758	0.96208608	-0.054552229	-0.97528863	1.4212181	-0.20211873	-0.99650706	1.4094504	0.11803883	-1.0683825	1.4466686	-0.046130189	-1.0364622	1.0802809	-0.25299302	-1.1316877	1.0946171	0.14363543	-0.84424992	0.92115963	-0.2617453	-1.0958423	0.87023162	0.2311602
71	0.28	-1.20066	0.061554382	-0.18034362	-0.82209324	0.039202778	0.019876918	-1.2405662	0.19085099	-0.21817613	-0.96393837	0.051696761	0.057875445	-1.2194327	0.19623059	-0.13742676	-0.94584195	0.080960172	-0.025045596	-1.3022643	0.22368928	-0.17761262	-1.0144549	0.028897785	0.0079457923	-0.95233595	0.43726933	-0.21266726	-0.93851572	0.45340926	0.094077877	-0.94838193	0.40527619	-0.094277578	-0.930694	0.46035911	-0.033298995	-0.98031239	0.81901779	-0.23928715	-0.98989385	0.87001332	0.14118262	-0.92790287	0.9330145	-0.17955775	-0.9213949	0.95765956	0.065528355	-1.1206668	0.96307912	-0.054247681	-0.96979367	1.4222914	-0.20166568	-0.99091531	1.4106324	0.11852748	-1.0624772	1.4476655	-0.045715785	-1.0324287	1.0815766	-0.2530596	-1.1240257	1.0945429	0.14509683	-0.84200731	0.92085418	-0.26258168	-1.0842081	0.87085259	0.23268699
